HIERARCHY
ROOT Hips
{
  OFFSET 5.84602e-005 68.8428 3.50346
  CHANNELS 6 Xposition Yposition Zposition Zrotation Xrotation Yrotation
  JOINT Spine
  {
    OFFSET 0 8.597 -4.6522
    CHANNELS 3 Zrotation Xrotation Yrotation
    JOINT Spine1
    {
      OFFSET 0 7.8454 0.4098
      CHANNELS 3 Zrotation Xrotation Yrotation
      JOINT Spine2
      {
        OFFSET 0 9.7078 -2.1609
        CHANNELS 3 Zrotation Xrotation Yrotation
        JOINT Neck
        {
          OFFSET 0 21.8761 -0.4549
          CHANNELS 3 Zrotation Xrotation Yrotation
          JOINT Head
          {
            OFFSET 0 12.3537 3.3602
            CHANNELS 3 Zrotation Xrotation Yrotation
            End Site
            {
              OFFSET 0.0001 18.9506 0.5657
            }
          }
        }
        JOINT LeftShoulder
        {
          OFFSET 2.2086 21.1115 7.2329
          CHANNELS 3 Zrotation Xrotation Yrotation
          JOINT LeftArm
          {
            OFFSET 13.1193 3.0282 -4.8998
            CHANNELS 3 Zrotation Xrotation Yrotation
            JOINT LeftForeArm
            {
              OFFSET 27.4081 -0.0973053 -0.2375
              CHANNELS 3 Zrotation Xrotation Yrotation
              JOINT LeftHand
              {
                OFFSET 22.8641 0.0662994 -0.1369
                CHANNELS 3 Zrotation Xrotation Yrotation
                JOINT LeftHandIndex1
                {
                  OFFSET 8.8614 0.775009 2.4612
                  CHANNELS 3 Zrotation Xrotation Yrotation
                  JOINT LeftHandIndex2
                  {
                    OFFSET 3.3146 -0.808304 0.5841
                    CHANNELS 3 Zrotation Xrotation Yrotation
                    JOINT LeftHandIndex3
                    {
                      OFFSET 2.2628 -0.552002 0.3989
                      CHANNELS 3 Zrotation Xrotation Yrotation
                      End Site
                      {
                        OFFSET 1.6102 -0.4807 0.2612
                      }
                    }
                  }
                }
                JOINT LeftHandMiddle1
                {
                  OFFSET 8.9937 0.895004 0.2143
                  CHANNELS 3 Zrotation Xrotation Yrotation
                  JOINT LeftHandMiddle2
                  {
                    OFFSET 4.0984 0.0113983 -0.0242
                    CHANNELS 3 Zrotation Xrotation Yrotation
                    JOINT LeftHandMiddle3
                    {
                      OFFSET 2.2716 0.00689697 -0.0138001
                      CHANNELS 3 Zrotation Xrotation Yrotation
                      End Site
                      {
                        OFFSET 2.0404 -0.1441 0.0027
                      }
                    }
                  }
                }
                JOINT LeftHandRing1
                {
                  OFFSET 8.5234 0.597198 -2.0164
                  CHANNELS 3 Zrotation Xrotation Yrotation
                  JOINT LeftHandRing2
                  {
                    OFFSET 3.7188 -0.188293 -0.2328
                    CHANNELS 3 Zrotation Xrotation Yrotation
                    JOINT LeftHandRing3
                    {
                      OFFSET 2.1191 -0.106598 -0.1332
                      CHANNELS 3 Zrotation Xrotation Yrotation
                      End Site
                      {
                        OFFSET 1.8737 -0.2304 -0.0886
                      }
                    }
                  }
                }
                JOINT LeftHandPinky1
                {
                  OFFSET 7.9094 -0.601089 -3.4825
                  CHANNELS 3 Zrotation Xrotation Yrotation
                  JOINT LeftHandPinky2
                  {
                    OFFSET 2.2874 -0.477005 -0.6314
                    CHANNELS 3 Zrotation Xrotation Yrotation
                    JOINT LeftHandPinky3
                    {
                      OFFSET 1.6774 -0.349396 -0.4633
                      CHANNELS 3 Zrotation Xrotation Yrotation
                      End Site
                      {
                        OFFSET 1.4888 -0.4091 -0.3416
                      }
                    }
                  }
                }
                JOINT LeftHandThumb1
                {
                  OFFSET 1.833 -1.3875 1.3896
                  CHANNELS 3 Zrotation Xrotation Yrotation
                  JOINT LeftHandThumb2
                  {
                    OFFSET 3.4129 -1.121 2.5732
                    CHANNELS 3 Zrotation Xrotation Yrotation
                    JOINT LeftHandThumb3
                    {
                      OFFSET 2.2474 -0.804199 1.6192
                      CHANNELS 3 Zrotation Xrotation Yrotation
                      End Site
                      {
                        OFFSET 1.6527 -0.5689 1.1317
                      }
                    }
                  }
                }
              }
            }
          }
        }
        JOINT RightShoulder
        {
          OFFSET -2.2086 21.1115 7.2329
          CHANNELS 3 Zrotation Xrotation Yrotation
          JOINT RightArm
          {
            OFFSET -13.1216 3.0287 -4.9007
            CHANNELS 3 Zrotation Xrotation Yrotation
            JOINT RightForeArm
            {
              OFFSET -27.4081 -0.0973053 -0.2375
              CHANNELS 3 Zrotation Xrotation Yrotation
              JOINT RightHand
              {
                OFFSET -22.8641 0.0664063 -0.1369
                CHANNELS 3 Zrotation Xrotation Yrotation
                JOINT RightHandIndex1
                {
                  OFFSET -8.8614 0.774994 2.4612
                  CHANNELS 3 Zrotation Xrotation Yrotation
                  JOINT RightHandIndex2
                  {
                    OFFSET -3.3146 -0.808304 0.5841
                    CHANNELS 3 Zrotation Xrotation Yrotation
                    JOINT RightHandIndex3
                    {
                      OFFSET -2.2628 -0.552002 0.3989
                      CHANNELS 3 Zrotation Xrotation Yrotation
                      End Site
                      {
                        OFFSET -1.6102 -0.4807 0.2612
                      }
                    }
                  }
                }
                JOINT RightHandMiddle1
                {
                  OFFSET -8.9937 0.894989 0.2143
                  CHANNELS 3 Zrotation Xrotation Yrotation
                  JOINT RightHandMiddle2
                  {
                    OFFSET -4.0984 0.0113983 -0.0242
                    CHANNELS 3 Zrotation Xrotation Yrotation
                    JOINT RightHandMiddle3
                    {
                      OFFSET -2.2716 0.00691223 -0.0138001
                      CHANNELS 3 Zrotation Xrotation Yrotation
                      End Site
                      {
                        OFFSET -2.0404 -0.1441 0.0027
                      }
                    }
                  }
                }
                JOINT RightHandRing1
                {
                  OFFSET -8.5234 0.597198 -2.0164
                  CHANNELS 3 Zrotation Xrotation Yrotation
                  JOINT RightHandRing2
                  {
                    OFFSET -3.7188 -0.188309 -0.2328
                    CHANNELS 3 Zrotation Xrotation Yrotation
                    JOINT RightHandRing3
                    {
                      OFFSET -2.1191 -0.106598 -0.1332
                      CHANNELS 3 Zrotation Xrotation Yrotation
                      End Site
                      {
                        OFFSET -1.8737 -0.2304 -0.0886
                      }
                    }
                  }
                }
                JOINT RightHandPinky1
                {
                  OFFSET -7.9094 -0.601105 -3.4825
                  CHANNELS 3 Zrotation Xrotation Yrotation
                  JOINT RightHandPinky2
                  {
                    OFFSET -2.2874 -0.477005 -0.6314
                    CHANNELS 3 Zrotation Xrotation Yrotation
                    JOINT RightHandPinky3
                    {
                      OFFSET -1.6774 -0.349396 -0.4633
                      CHANNELS 3 Zrotation Xrotation Yrotation
                      End Site
                      {
                        OFFSET -1.4888 -0.4091 -0.3416
                      }
                    }
                  }
                }
                JOINT RightHandThumb1
                {
                  OFFSET -1.833 -1.38751 1.3896
                  CHANNELS 3 Zrotation Xrotation Yrotation
                  JOINT RightHandThumb2
                  {
                    OFFSET -3.41299 -1.12099 2.5732
                    CHANNELS 3 Zrotation Xrotation Yrotation
                    JOINT RightHandThumb3
                    {
                      OFFSET -2.24741 -0.804108 1.6192
                      CHANNELS 3 Zrotation Xrotation Yrotation
                      End Site
                      {
                        OFFSET -1.6527 -0.5689 1.1317
                      }
                    }
                  }
                }
              }
            }
          }
        }
      }
    }
  }
  JOINT RightUpLeg
  {
    OFFSET -9.1966 3.8861 -0.7581
    CHANNELS 3 Zrotation Xrotation Yrotation
    JOINT RightLeg
    {
      OFFSET -0.7359 -41.0265 0
      CHANNELS 3 Zrotation Xrotation Yrotation
      JOINT RightFoot
      {
        OFFSET 0 -40.2855 0
        CHANNELS 3 Zrotation Xrotation Yrotation
        JOINT RightToeBase
        {
          OFFSET 0 -5.6122 11.7359
          CHANNELS 3 Zrotation Xrotation Yrotation
          End Site
          {
            OFFSET 0 0 7.8731
          }
        }
      }
    }
  }
  JOINT LeftUpLeg
  {
    OFFSET 9.1965 3.8864 -0.7581
    CHANNELS 3 Zrotation Xrotation Yrotation
    JOINT LeftLeg
    {
      OFFSET 0.7359 -41.0268 0
      CHANNELS 3 Zrotation Xrotation Yrotation
      JOINT LeftFoot
      {
        OFFSET 0 -40.2855 0
        CHANNELS 3 Zrotation Xrotation Yrotation
        JOINT LeftToeBase
        {
          OFFSET 0 -5.6122 11.7359
          CHANNELS 3 Zrotation Xrotation Yrotation
          End Site
          {
            OFFSET 0 0 7.8731
          }
        }
      }
    }
  }
}
MOTION
Frames:	6
Frame Time:	0.0333333
5.84602e-005 68.8428 3.50346 0 0 -0 0 0 -0 0 0 -0 0 0 -0 0 0 -0 0 0 -0 0 0 -0 0 0 -0 0 0 -0 0 0 -0 0 0 -0 0 0 -0 0 0 -0 0 0 -0 -0.0146107 -8.87603e-005 -2.63497e-007 2.99804e-018 -2.42657e-020 -1.42182e-022 0 0 -0 -0.0187562 -0.001176 5.858e-005 5.06224e-018 3.88251e-019 1.21329e-020 0 0 -0 -0.012269 -0.00324817 0.000675346 -1.74678e-018 3.88251e-019 -0 0 0 -0 0 0 -0 0 0 -0 0 0 -0 0 0 -0 0 0 -0 0 0 -0 0 0 -0 0 0 -0 0 0 -0 0 0 -0 0.0149955 -9.10982e-005 2.64101e-007 -9.69331e-018 1.21329e-020 -4.7394e-023 0 0 -0 0.0189956 -0.00119102 -5.96516e-005 -5.41541e-019 0 2.42657e-020 0 0 -0 0.0122698 -0.00324857 -0.000673756 -2.00796e-019 0 -1.94126e-019 0 0 -0 0 0 -0 0 0 -0 3.39842 1.33031 -0.0637918 -5.65207e-008 0.834868 -0.000436188 -3.39935 -2.16518 -0.0642563 -8.89002e-024 -1.18485e-023 -1.48106e-024 -3.39844 1.35642 0.0640283 -3.18788e-007 0.782166 -0.000588827 3.39931 -2.13858 0.0634662 1.1399e-023 0 -0 
39.7392 16.5763 22.8329 0 60.9989 -0 -0.331 17.6727 -0.07692 -0.689018 35.3455 -0.0435789 -0.689018 35.3455 -0.0435794 -16.1186 -30.1485 38.022 12.071 -14.4191 21.4219 -8.64058 -9.56852 -4.88347 -79.6095 -13.0178 -83.2023 45.3693 71.029 -101.352 -70.6628 -5.61874 -30.8331 3.35302e-006 -5.11643e-008 2.17521e-007 -1.77956e-007 -7.39345e-007 -2.27437e-007 3.17507e-006 -7.9051e-007 -9.91556e-009 3.35302e-006 -5.11643e-008 2.17521e-007 -0.0146251 -8.92977e-005 -4.84125e-006 3.17494e-006 -7.90509e-007 -1.0019e-008 3.35302e-006 -5.11643e-008 2.17521e-007 -0.0187582 -0.00117766 5.97029e-005 3.17491e-006 -7.9052e-007 -1.00771e-008 3.35302e-006 -5.11643e-008 2.17521e-007 -0.0122409 -0.00324148 0.000672276 3.17496e-006 -7.90555e-007 -1.00841e-008 3.35302e-006 -5.11643e-008 2.17521e-007 -1.77956e-007 -7.39345e-007 -2.27437e-007 3.17507e-006 -7.9051e-007 -9.91556e-009 8.66245 -9.54139 5.15087 79.5751 -13.1122 83.1718 -45.2225 71.0054 101.134 70.6307 -5.57238 30.8142 3.97569e-015 -3.18055e-015 -3.18055e-015 -1.4836e-007 8.54816e-009 -1.73224e-006 -4.77083e-015 -3.18055e-015 -3.18055e-015 3.97569e-015 -3.18055e-015 -3.18055e-015 0.015022 -9.12839e-005 4.26738e-006 2.38542e-015 0 9.54166e-015 3.97569e-015 -3.18055e-015 -3.18055e-015 0.0189888 -0.00118922 -6.00663e-005 -3.18055e-015 0 3.18055e-015 3.97569e-015 -3.18055e-015 -3.18055e-015 0.012285 -0.00325094 -0.000675626 -1.03368e-014 -3.18055e-015 -0 3.97569e-015 -3.18055e-015 -3.18055e-015 -1.4836e-007 8.54816e-009 -1.73224e-006 -4.77083e-015 -3.18055e-015 -3.18055e-015 167.591 -73.7454 168.721 -177.271 24.2509 168.511 13.4015 -15.9247 19.142 -1.53667e-007 1.63924e-008 1.47166e-007 -167.549 -73.7422 -168.682 177.286 24.2437 -168.525 -13.4054 -15.92 -19.1447 -1.59028e-015 3.97569e-016 -5.2181e-016 
39.7392 16.6149 22.8843 0 61.4985 -0 -0.330558 17.5062 -0.0781418 -0.686765 35.0124 -0.0477247 -0.686764 35.0124 -0.0477245 -15.5289 -30.1104 38.3361 12.4443 -14.9369 21.6573 -8.6331 -9.55078 -4.88176 -79.6095 -13.0178 -83.2023 45.4236 71.1047 -100.998 -70.6307 -5.2149 -31.1505 3.17296e-006 -8.00683e-007 -6.67152e-009 3.35188e-006 -5.49241e-008 2.22436e-007 -7.95139e-015 1.59028e-015 -3.18055e-015 3.17296e-006 -8.00683e-007 -6.67152e-009 -0.014599 -8.74849e-005 -4.23991e-006 -4.41391e-032 7.95139e-016 3.18055e-015 3.17296e-006 -8.00683e-007 -6.67152e-009 -0.0187892 -0.00117932 5.98618e-005 -2.38542e-015 -1.59028e-015 3.18055e-015 3.17296e-006 -8.00683e-007 -6.67152e-009 -0.0122153 -0.00323247 0.000675504 -5.96354e-015 0 6.36111e-015 3.17296e-006 -8.00683e-007 -6.67152e-009 3.35188e-006 -5.49241e-008 2.22436e-007 -7.95139e-015 1.59028e-015 -3.18055e-015 8.5614 -9.20419 5.53298 79.5668 -13.2819 83.1871 -45.3835 71.246 100.245 70.3981 -4.89341 31.1563 -1.19271e-014 0 -6.36111e-015 3.18796e-006 7.52975e-007 -3.86733e-010 -9.54166e-015 4.77083e-015 3.18055e-015 -1.19271e-014 0 -6.36111e-015 0.0149589 -9.04726e-005 -1.90238e-006 -9.54166e-015 0 -3.18055e-015 -1.19271e-014 0 -6.36111e-015 0.0190106 -0.00119165 -5.52293e-005 -7.15625e-015 -1.59028e-015 -3.18055e-015 -1.19271e-014 0 -6.36111e-015 0.0123426 -0.00326334 -0.000682023 3.18055e-015 6.36111e-015 -3.18055e-015 -1.19271e-014 0 -6.36111e-015 3.18796e-006 7.52975e-007 -3.86733e-010 -9.54166e-015 4.77083e-015 3.18055e-015 167.945 -73.4657 169.01 -177.272 24.2452 168.514 13.4031 -15.9194 19.1428 -1.05765e-006 2.4263e-007 -1.47954e-006 -167.903 -73.4659 -168.97 177.286 24.2408 -168.527 -13.407 -15.9149 -19.1456 -1.5395e-007 -1.65664e-008 1.46854e-007 
39.7392 16.6541 22.936 0 61.9983 -0 -0.33012 17.3396 -0.0793631 -0.684549 34.6793 -0.0518428 -0.684548 34.6793 -0.0518433 -14.9397 -30.0695 38.6497 12.8208 -15.4534 21.8968 -8.62562 -9.53303 -4.88005 -79.6095 -13.0178 -83.2023 45.4768 71.1805 -100.644 -70.5964 -4.81112 -31.468 1.22974e-006 -2.74019e-007 -6.49034e-008 3.1768e-006 -7.85985e-007 4.23086e-009 1.953e-006 -4.87101e-007 7.67631e-008 1.22974e-006 -2.74019e-007 -6.49034e-008 -0.0146016 -8.92076e-005 -1.48542e-006 1.95386e-006 -4.87106e-007 7.66996e-008 1.22974e-006 -2.74019e-007 -6.49034e-008 -0.018753 -0.00117785 6.23654e-005 1.95411e-006 -4.87045e-007 7.66597e-008 1.22974e-006 -2.74019e-007 -6.49034e-008 -0.0122773 -0.00325005 0.000681709 1.95373e-006 -4.8693e-007 7.66154e-008 1.22974e-006 -2.74019e-007 -6.49034e-008 3.1768e-006 -7.85985e-007 4.23086e-009 1.953e-006 -4.87101e-007 7.67631e-008 8.45813 -8.86752 5.91546 79.5585 -13.4516 83.2023 -45.5349 71.4877 99.345 70.1614 -4.21529 31.501 6.36111e-015 3.18055e-015 -0 1.59028e-015 4.77083e-015 6.36111e-015 -7.95139e-016 3.18055e-015 -3.18055e-015 6.36111e-015 3.18055e-015 -0 0.0150247 -9.31696e-005 2.79008e-006 -7.27805e-007 -9.39563e-008 2.4197e-007 6.36111e-015 3.18055e-015 -0 0.0190054 -0.00119096 -5.96949e-005 -7.95139e-016 0 3.18055e-015 6.36111e-015 3.18055e-015 -0 0.0122581 -0.00324473 -0.000675048 -1.59028e-015 0 -3.18055e-015 6.36111e-015 3.18055e-015 -0 1.59028e-015 4.77083e-015 6.36111e-015 -7.95139e-016 3.18055e-015 -3.18055e-015 168.285 -73.1909 169.284 -177.272 24.2447 168.516 13.4047 -15.9143 19.1436 1.54206e-007 -1.6681e-008 -1.46575e-007 -168.248 -73.1848 -169.25 177.287 24.2335 -168.53 -13.4086 -15.9097 -19.1464 -1.84866e-007 -6.74476e-008 1.34966e-006 
39.7392 16.6937 22.9881 0 62.4981 -0 -0.329683 17.1729 -0.0805833 -0.68237 34.3461 -0.0559336 -0.68237 34.3461 -0.0559338 -14.3506 -30.0258 38.9628 13.2007 -15.9686 22.1406 -8.61815 -9.51529 -4.87834 -79.6095 -13.0178 -83.2023 45.5288 71.2564 -100.287 -70.5599 -4.40741 -31.7857 -7.95139e-016 -2.38542e-015 -3.18055e-015 -9.93923e-015 -1.59028e-015 -0 -1.19271e-015 1.59028e-015 -0 -7.95139e-016 -2.38542e-015 -3.18055e-015 -0.0146024 -8.8941e-005 3.54141e-006 5.96354e-015 -3.18055e-015 -3.18055e-015 -7.95139e-016 -2.38542e-015 -3.18055e-015 -0.0187811 -0.00117936 5.72663e-005 -2.46493e-014 7.95139e-015 6.36111e-015 -7.95139e-016 -2.38542e-015 -3.18055e-015 -0.0123197 -0.00326057 0.000677363 -1.98785e-015 -1.59028e-015 -0 -7.95139e-016 -2.38542e-015 -3.18055e-015 -9.93923e-015 -1.59028e-015 -0 -1.19271e-015 1.59028e-015 -0 8.35266 -8.53146 6.29832 79.5503 -13.6213 83.2175 -45.6763 71.7304 98.4347 69.9206 -3.53816 31.8485 -3.18827e-006 -7.51657e-007 1.13443e-009 -2.38542e-015 -7.95139e-015 -0 1.86038e-007 -6.91621e-007 2.12343e-007 -3.18827e-006 -7.51657e-007 1.13443e-009 0.0149749 -9.149e-005 3.02377e-006 1.86037e-007 -6.91593e-007 2.12433e-007 -3.18827e-006 -7.51657e-007 1.13443e-009 0.019027 -0.0011932 -6.14259e-005 1.8604e-007 -6.91586e-007 2.12456e-007 -3.18827e-006 -7.51657e-007 1.13443e-009 0.0122733 -0.00324963 -0.000679123 1.86048e-007 -6.91597e-007 2.12411e-007 -3.18827e-006 -7.51657e-007 1.13443e-009 -2.38542e-015 -7.95139e-015 -0 1.86038e-007 -6.91621e-007 2.12343e-007 168.618 -72.9113 169.551 -177.273 24.2397 168.518 13.4063 -15.9092 19.1445 -4.63423e-007 5.04725e-008 4.38835e-007 -168.581 -72.9088 -169.517 177.287 24.232 -168.532 -13.4102 -15.9046 -19.1472 -1.21578e-007 3.48955e-008 -1.05673e-006 
39.7392 16.7338 23.0404 0 62.9981 -0 -0.329252 17.0063 -0.0818028 -0.680229 34.0128 -0.0599987 -0.680228 34.0128 -0.0599989 -13.7622 -29.9792 39.2752 13.584 -16.4825 22.3887 -8.61067 -9.49753 -4.87663 -79.6095 -13.0178 -83.2023 45.5795 71.3325 -99.93 -70.5211 -4.00381 -32.1035 -2.78299e-015 1.59028e-015 -0 7.95139e-015 -3.97569e-015 1.27222e-014 3.18055e-015 1.59028e-015 3.18055e-015 -2.78299e-015 1.59028e-015 -0 -0.0145953 -8.91161e-005 -1.33118e-006 1.59028e-015 -3.18055e-015 -0 -2.78299e-015 1.59028e-015 -0 -0.018728 -0.001173 6.05583e-005 4.37326e-015 0 3.18055e-015 -2.78299e-015 1.59028e-015 -0 -0.0122588 -0.00324678 0.00067578 3.97569e-015 -4.77083e-015 3.18055e-015 -2.78299e-015 1.59028e-015 -0 7.95139e-015 -3.97569e-015 1.27222e-014 3.18055e-015 1.59028e-015 3.18055e-015 8.24498 -8.19599 6.68158 79.5421 -13.791 83.2327 -45.8072 71.9741 97.5136 69.6758 -2.86207 32.1988 8.74653e-015 0 -3.18055e-015 -6.36111e-015 -3.18055e-015 -6.36111e-015 -7.15625e-015 -1.59028e-015 -3.18055e-015 8.74653e-015 0 -3.18055e-015 0.0150038 -9.15206e-005 -2.62465e-007 -7.2805e-007 -9.23591e-008 2.36525e-007 8.74653e-015 0 -3.18055e-015 0.0189918 -0.00119082 -6.11177e-005 3.18055e-015 -4.77083e-015 -3.18055e-015 8.74653e-015 0 -3.18055e-015 0.0122514 -0.00324059 -0.000675589 -1.43125e-014 -1.59028e-015 -0 8.74653e-015 0 -3.18055e-015 -6.36111e-015 -3.18055e-015 -6.36111e-015 -7.15625e-015 -1.59028e-015 -3.18055e-015 168.939 -72.6372 169.806 -177.273 24.2408 168.52 13.4079 -15.9041 19.1453 -3.50459e-008 5.26461e-008 1.20289e-006 -168.902 -72.6377 -169.771 177.287 24.2358 -168.533 -13.4117 -15.8994 -19.148 1.35763e-006 1.0019e-007 -1.1079e-007 
